<svg xmlns="http://www.w3.org/2000/svg" viewBox="0 0 19 25" width="228" height="300" shape-rendering="crispEdges"><rect x="3" y="23" width="10" height="1" fill="#141225" opacity=".12"/><rect x="15" y="1" width="1" height="1" fill="#7C5CFF"/><rect x="16" y="1" width="1" height="1" fill="#7C5CFF"/><rect x="17" y="1" width="1" height="1" fill="#7C5CFF"/><rect x="17" y="2" width="1" height="1" fill="#7C5CFF"/><rect x="16" y="3" width="1" height="1" fill="#7C5CFF"/><rect x="17" y="3" width="1" height="1" fill="#7C5CFF"/><rect x="16" y="5" width="1" height="1" fill="#7C5CFF"/><rect x="7" y="7" width="1" height="1" fill="#22D3EE"/><rect x="8" y="7" width="1" height="1" fill="#22D3EE"/><rect x="7" y="8" width="1" height="1" fill="#22D3EE"/><rect x="8" y="8" width="1" height="1" fill="#22D3EE"/><rect x="8" y="9" width="1" height="1" fill="#7C5CFF"/><rect x="3" y="10" width="1" height="1" fill="#A996FF"/><rect x="4" y="10" width="1" height="1" fill="#A996FF"/><rect x="5" y="10" width="1" height="1" fill="#A996FF"/><rect x="6" y="10" width="1" height="1" fill="#A996FF"/><rect x="7" y="10" width="1" height="1" fill="#A996FF"/><rect x="8" y="10" width="1" height="1" fill="#7C5CFF"/><rect x="9" y="10" width="1" height="1" fill="#7C5CFF"/><rect x="10" y="10" width="1" height="1" fill="#7C5CFF"/><rect x="11" y="10" width="1" height="1" fill="#7C5CFF"/><rect x="12" y="10" width="1" height="1" fill="#7C5CFF"/><rect x="2" y="11" width="1" height="1" fill="#A996FF"/><rect x="3" y="11" width="1" height="1" fill="#A996FF"/><rect x="4" y="11" width="1" height="1" fill="#7C5CFF"/><rect x="5" y="11" width="1" height="1" fill="#7C5CFF"/><rect x="6" y="11" width="1" height="1" fill="#7C5CFF"/><rect x="7" y="11" width="1" height="1" fill="#7C5CFF"/><rect x="8" y="11" width="1" height="1" fill="#7C5CFF"/><rect x="9" y="11" width="1" height="1" fill="#7C5CFF"/><rect x="10" y="11" width="1" height="1" fill="#7C5CFF"/><rect x="11" y="11" width="1" height="1" fill="#7C5CFF"/><rect x="12" y="11" width="1" height="1" fill="#7C5CFF"/><rect x="13" y="11" width="1" height="1" fill="#5B45E6"/><rect x="2" y="12" width="1" height="1" fill="#A996FF"/><rect x="3" y="12" width="1" height="1" fill="#141225"/><rect x="4" y="12" width="1" height="1" fill="#FFFFFF"/><rect x="5" y="12" width="1" height="1" fill="#22D3EE"/><rect x="6" y="12" width="1" height="1" fill="#141225"/><rect x="7" y="12" width="1" height="1" fill="#141225"/><rect x="8" y="12" width="1" height="1" fill="#141225"/><rect x="9" y="12" width="1" height="1" fill="#FFFFFF"/><rect x="10" y="12" width="1" height="1" fill="#22D3EE"/><rect x="11" y="12" width="1" height="1" fill="#141225"/><rect x="12" y="12" width="1" height="1" fill="#141225"/><rect x="13" y="12" width="1" height="1" fill="#5B45E6"/><rect x="1" y="13" width="1" height="1" fill="#7C5CFF"/><rect x="2" y="13" width="1" height="1" fill="#A996FF"/><rect x="3" y="13" width="1" height="1" fill="#141225"/><rect x="4" y="13" width="1" height="1" fill="#22D3EE"/><rect x="5" y="13" width="1" height="1" fill="#22D3EE"/><rect x="6" y="13" width="1" height="1" fill="#141225"/><rect x="7" y="13" width="1" height="1" fill="#141225"/><rect x="8" y="13" width="1" height="1" fill="#141225"/><rect x="9" y="13" width="1" height="1" fill="#22D3EE"/><rect x="10" y="13" width="1" height="1" fill="#22D3EE"/><rect x="11" y="13" width="1" height="1" fill="#141225"/><rect x="12" y="13" width="1" height="1" fill="#141225"/><rect x="13" y="13" width="1" height="1" fill="#5B45E6"/><rect x="14" y="13" width="1" height="1" fill="#7C5CFF"/><rect x="1" y="14" width="1" height="1" fill="#7C5CFF"/><rect x="2" y="14" width="1" height="1" fill="#A996FF"/><rect x="3" y="14" width="1" height="1" fill="#141225"/><rect x="4" y="14" width="1" height="1" fill="#141225"/><rect x="5" y="14" width="1" height="1" fill="#141225"/><rect x="6" y="14" width="1" height="1" fill="#141225"/><rect x="7" y="14" width="1" height="1" fill="#141225"/><rect x="8" y="14" width="1" height="1" fill="#141225"/><rect x="9" y="14" width="1" height="1" fill="#141225"/><rect x="10" y="14" width="1" height="1" fill="#141225"/><rect x="11" y="14" width="1" height="1" fill="#141225"/><rect x="12" y="14" width="1" height="1" fill="#141225"/><rect x="13" y="14" width="1" height="1" fill="#5B45E6"/><rect x="14" y="14" width="1" height="1" fill="#7C5CFF"/><rect x="2" y="15" width="1" height="1" fill="#7C5CFF"/><rect x="3" y="15" width="1" height="1" fill="#141225"/><rect x="4" y="15" width="1" height="1" fill="#141225"/><rect x="5" y="15" width="1" height="1" fill="#141225"/><rect x="6" y="15" width="1" height="1" fill="#141225"/><rect x="7" y="15" width="1" height="1" fill="#141225"/><rect x="8" y="15" width="1" height="1" fill="#141225"/><rect x="9" y="15" width="1" height="1" fill="#141225"/><rect x="10" y="15" width="1" height="1" fill="#141225"/><rect x="11" y="15" width="1" height="1" fill="#141225"/><rect x="12" y="15" width="1" height="1" fill="#141225"/><rect x="13" y="15" width="1" height="1" fill="#5B45E6"/><rect x="2" y="16" width="1" height="1" fill="#7C5CFF"/><rect x="3" y="16" width="1" height="1" fill="#141225"/><rect x="4" y="16" width="1" height="1" fill="#141225"/><rect x="5" y="16" width="1" height="1" fill="#141225"/><rect x="6" y="16" width="1" height="1" fill="#141225"/><rect x="7" y="16" width="1" height="1" fill="#22D3EE"/><rect x="8" y="16" width="1" height="1" fill="#22D3EE"/><rect x="9" y="16" width="1" height="1" fill="#22D3EE"/><rect x="10" y="16" width="1" height="1" fill="#141225"/><rect x="11" y="16" width="1" height="1" fill="#141225"/><rect x="12" y="16" width="1" height="1" fill="#141225"/><rect x="13" y="16" width="1" height="1" fill="#5B45E6"/><rect x="2" y="17" width="1" height="1" fill="#7C5CFF"/><rect x="3" y="17" width="1" height="1" fill="#141225"/><rect x="4" y="17" width="1" height="1" fill="#141225"/><rect x="5" y="17" width="1" height="1" fill="#141225"/><rect x="6" y="17" width="1" height="1" fill="#141225"/><rect x="7" y="17" width="1" height="1" fill="#141225"/><rect x="8" y="17" width="1" height="1" fill="#141225"/><rect x="9" y="17" width="1" height="1" fill="#141225"/><rect x="10" y="17" width="1" height="1" fill="#141225"/><rect x="11" y="17" width="1" height="1" fill="#141225"/><rect x="12" y="17" width="1" height="1" fill="#141225"/><rect x="13" y="17" width="1" height="1" fill="#5B45E6"/><rect x="3" y="18" width="1" height="1" fill="#7C5CFF"/><rect x="4" y="18" width="1" height="1" fill="#7C5CFF"/><rect x="5" y="18" width="1" height="1" fill="#7C5CFF"/><rect x="6" y="18" width="1" height="1" fill="#7C5CFF"/><rect x="7" y="18" width="1" height="1" fill="#7C5CFF"/><rect x="8" y="18" width="1" height="1" fill="#7C5CFF"/><rect x="9" y="18" width="1" height="1" fill="#7C5CFF"/><rect x="10" y="18" width="1" height="1" fill="#7C5CFF"/><rect x="11" y="18" width="1" height="1" fill="#5B45E6"/><rect x="12" y="18" width="1" height="1" fill="#5B45E6"/><rect x="13" y="18" width="1" height="1" fill="#22D3EE"/><rect x="5" y="19" width="1" height="1" fill="#3FA8F5"/><rect x="6" y="19" width="1" height="1" fill="#3FA8F5"/><rect x="7" y="19" width="1" height="1" fill="#3FA8F5"/><rect x="8" y="19" width="1" height="1" fill="#3FA8F5"/><rect x="9" y="19" width="1" height="1" fill="#3FA8F5"/><rect x="10" y="19" width="1" height="1" fill="#3FA8F5"/><rect x="13" y="19" width="1" height="1" fill="#3FA8F5"/><rect x="3" y="20" width="1" height="1" fill="#3FA8F5"/><rect x="5" y="20" width="1" height="1" fill="#3FA8F5"/><rect x="6" y="20" width="1" height="1" fill="#22D3EE"/><rect x="7" y="20" width="1" height="1" fill="#3FA8F5"/><rect x="8" y="20" width="1" height="1" fill="#3FA8F5"/><rect x="9" y="20" width="1" height="1" fill="#22D3EE"/><rect x="10" y="20" width="1" height="1" fill="#3FA8F5"/><rect x="12" y="20" width="1" height="1" fill="#3FA8F5"/><rect x="3" y="21" width="1" height="1" fill="#3FA8F5"/><rect x="5" y="21" width="1" height="1" fill="#3FA8F5"/><rect x="6" y="21" width="1" height="1" fill="#3FA8F5"/><rect x="7" y="21" width="1" height="1" fill="#3FA8F5"/><rect x="8" y="21" width="1" height="1" fill="#3FA8F5"/><rect x="9" y="21" width="1" height="1" fill="#3FA8F5"/><rect x="10" y="21" width="1" height="1" fill="#3FA8F5"/><rect x="5" y="22" width="1" height="1" fill="#3FA8F5"/><rect x="6" y="22" width="1" height="1" fill="#3FA8F5"/><rect x="9" y="22" width="1" height="1" fill="#3FA8F5"/><rect x="10" y="22" width="1" height="1" fill="#3FA8F5"/></svg>